<svg height="512" viewBox="0 0 64 64" width="512" xmlns="http://www.w3.org/2000/svg"><g id="_12-loykrathong" data-name="12-loykrathong"><path d="m45 6a3 3 0 0 1 -6 0c0-1.66 2-5 3-5s3 3.34 3 5z" fill="#ffdf64"/><path d="m44 13v26a2.782 2.782 0 0 0 -1.54.61 25.514 25.514 0 0 0 -2.66-3.4l.2-.21v-23z" fill="#ffdf64"/><path d="m53 55v6a2.006 2.006 0 0 1 -2 2h-38a2.006 2.006 0 0 1 -2-2v-6z" fill="#49c263"/><g fill="#ff8488"><path d="m63 48c0 3.79-2.69 7-6 7h-5.92c5.94-.02 8.92-3.44 8.92-6.86v-.14l3-2z"/><path d="m4 48.14c0 3.42 2.98 6.84 8.92 6.86h-5.92c-3.31 0-6-3.21-6-7v-2l3 2z"/><path d="m14 35c.93 0 2.86 2.21 4.45 4.61a17.212 17.212 0 0 0 -4.1 5.01 28.418 28.418 0 0 0 -5.04-4.65c1.64-2.53 3.71-4.97 4.69-4.97z"/><path d="m26 35c.93 0 2.86 2.21 4.45 4.61a18.436 18.436 0 0 0 -4.45 5.62 18.26 18.26 0 0 0 -4.45-5.62c1.59-2.4 3.52-4.61 4.45-4.61z"/><path d="m39.8 36.21a25.514 25.514 0 0 1 2.66 3.4 18.3 18.3 0 0 0 -4.46 5.62 18.436 18.436 0 0 0 -4.45-5.62c1.59-2.4 3.52-4.61 4.45-4.61.43 0 1.07.47 1.8 1.21z"/><path d="m54.69 39.97a28.418 28.418 0 0 0 -5.04 4.65 17.212 17.212 0 0 0 -4.1-5.01c1.59-2.4 3.52-4.61 4.45-4.61.98 0 3.05 2.44 4.69 4.97z"/></g><path d="m12 50.43c0 3.43 2 4.57 8 4.57h-7.08c-5.94-.02-8.92-3.44-8.92-6.86v-.14c0-2.62.05-9 2.99-9a4.826 4.826 0 0 1 2.32.97 28.418 28.418 0 0 1 5.04 4.65c-1.36 2.3-2.35 4.68-2.35 5.81z" fill="#ffa8a8"/><path d="m54.69 39.97a4.826 4.826 0 0 1 2.32-.97c2.94 0 2.99 6.38 2.99 9v.14c0 3.42-2.98 6.84-8.92 6.86h-7.08c6 0 8-1.14 8-4.57 0-1.13-.99-3.51-2.35-5.81a28.418 28.418 0 0 1 5.04-4.65z" fill="#ffa8a8"/><path d="m18.45 39.61a2.809 2.809 0 0 1 1.55-.61 2.809 2.809 0 0 1 1.55.61 18.26 18.26 0 0 1 4.45 5.62 14.041 14.041 0 0 0 -2 5.2c0 3.43 2 4.57 8 4.57h-12c-6 0-8-1.14-8-4.57 0-1.13.99-3.51 2.35-5.81a17.212 17.212 0 0 1 4.1-5.01z" fill="#ffa8a8"/><path d="m49.65 44.62c1.36 2.3 2.35 4.68 2.35 5.81 0 3.43-2 4.57-8 4.57h-12c6 0 8-1.14 8-4.57a14.041 14.041 0 0 0 -2-5.2 18.3 18.3 0 0 1 4.46-5.62 2.262 2.262 0 0 1 3.09 0 17.212 17.212 0 0 1 4.1 5.01z" fill="#ffbaba"/><path d="m33.55 39.61a18.436 18.436 0 0 1 4.45 5.62 14.041 14.041 0 0 1 2 5.2c0 3.43-2 4.57-8 4.57s-8-1.14-8-4.57a14.041 14.041 0 0 1 2-5.2 18.436 18.436 0 0 1 4.45-5.62 2.809 2.809 0 0 1 1.55-.61 2.809 2.809 0 0 1 1.55.61z" fill="#ffd6d6"/><path d="m32.533 52c-3.627 0-6.714-1.59-7.95-3.831a7.05 7.05 0 0 0 -.583 2.261c0 3.43 2 4.57 8 4.57s8-1.14 8-4.57a6.828 6.828 0 0 0 -.549-2.175 7.638 7.638 0 0 1 -6.918 3.745z" fill="#ffbaba"/><path d="m43.627 51.439a2.015 2.015 0 0 1 -1.683-1.839 13.522 13.522 0 0 0 -2.372-6.86 28.5 28.5 0 0 0 -1.572 2.49 14.041 14.041 0 0 1 2 5.2c0 3.43-2 4.57-8 4.57h12c6 0 8-1.14 8-4.57a4.591 4.591 0 0 0 -.219-1.2 11.561 11.561 0 0 1 -8.154 2.209z" fill="#ff9191"/><path d="m33 39.282v-36.282h-2v36.282a1.914 1.914 0 0 1 2 0z" fill="#c7874e"/><path d="m29 37.61v-34.61h-2v32.5a13.147 13.147 0 0 1 2 2.11z" fill="#c7874e"/><path d="m25 35.5v-32.5h-2v34.61a13.147 13.147 0 0 1 2-2.11z" fill="#c7874e"/><path d="m44 6.75c0-1.245-1.333-3.75-2-3.75s-2 2.505-2 3.75a2.014 2.014 0 1 0 4 0z" fill="#ffb844"/><path d="m14 38c-.719 0-2.023 1.313-3.314 3.01a32.973 32.973 0 0 1 3.664 3.61 22.6 22.6 0 0 1 2.792-3.834c-1.233-1.586-2.458-2.786-3.142-2.786z" fill="#ff6368"/><path d="m26 38c-.684 0-1.909 1.2-3.141 2.786a23.365 23.365 0 0 1 3.141 4.444 23.593 23.593 0 0 1 3.143-4.442c-1.233-1.588-2.459-2.788-3.143-2.788z" fill="#ff6368"/><path d="m38 38c-.684 0-1.91 1.2-3.143 2.788a23.593 23.593 0 0 1 3.143 4.442 23.7 23.7 0 0 1 3.147-4.444 19.763 19.763 0 0 0 -1.347-1.576c-.73-.74-1.37-1.21-1.8-1.21z" fill="#ff6368"/><path d="m53.314 41.01c-1.291-1.697-2.595-3.01-3.314-3.01-.684 0-1.909 1.2-3.142 2.786a22.6 22.6 0 0 1 2.792 3.834 32.973 32.973 0 0 1 3.664-3.61z" fill="#ff6368"/><path d="m52 55h-41v3.977a11.615 11.615 0 0 0 1.551-.28 31.171 31.171 0 0 0 4.32-1.453 13.525 13.525 0 0 0 3.515 1.565 5.411 5.411 0 0 0 1.328.191 5.351 5.351 0 0 0 1.32-.191 13.8 13.8 0 0 0 3.823-1.756 13.9 13.9 0 0 0 3.814 1.756 4.719 4.719 0 0 0 2.658 0 13.9 13.9 0 0 0 3.814-1.756 13.743 13.743 0 0 0 3.814 1.756 4.716 4.716 0 0 0 2.657 0 13.525 13.525 0 0 0 3.515-1.565 31.171 31.171 0 0 0 4.32 1.453 11.615 11.615 0 0 0 1.551.28v-3.977z" fill="#129c78"/><path d="m20.373 51.439a2.015 2.015 0 0 0 1.683-1.839 13.522 13.522 0 0 1 2.372-6.86 28.5 28.5 0 0 1 1.572 2.49 14.041 14.041 0 0 0 -2 5.2c0 3.43 2 4.57 8 4.57h-12c-6 0-8-1.14-8-4.57a4.591 4.591 0 0 1 .219-1.2 11.561 11.561 0 0 0 8.154 2.209z" fill="#ff9191"/><path d="m38 45.23a18.436 18.436 0 0 0 -4.45-5.62 2.809 2.809 0 0 0 -1.55-.61v16c6 0 8-1.14 8-4.57a14.041 14.041 0 0 0 -2-5.2z" fill="#ffebeb"/><path d="m39.451 48.255a7.638 7.638 0 0 1 -6.918 3.745c-.181 0-.354-.021-.533-.029v3.029c6 0 8-1.14 8-4.57a6.828 6.828 0 0 0 -.549-2.175z" fill="#ffd6d6"/><path d="m47.179 51.282a12.223 12.223 0 0 0 4.6-2.049 21.949 21.949 0 0 0 -2.129-4.613 17.212 17.212 0 0 0 -4.1-5.01 2.809 2.809 0 0 0 -1.55-.61l3.218 9.655a3.988 3.988 0 0 1 -.039 2.627z" fill="#ffd6d6"/><path d="m51.943 49.9-.006-.027c-.038-.2-.089-.408-.156-.636a12.223 12.223 0 0 1 -4.6 2.049 3.986 3.986 0 0 1 -.927 1.466l-2.254 2.248c6 0 8-1.14 8-4.57a2.986 2.986 0 0 0 -.057-.53z" fill="#ffa8a8"/><path d="m16.821 51.282a12.223 12.223 0 0 1 -4.6-2.049 21.949 21.949 0 0 1 2.129-4.613 17.212 17.212 0 0 1 4.1-5.01 2.809 2.809 0 0 1 1.55-.61l-3.218 9.655a3.988 3.988 0 0 0 .039 2.627z" fill="#ffd6d6"/><path d="m12.057 49.9.006-.027c.038-.2.089-.408.156-.636a12.223 12.223 0 0 0 4.6 2.049 3.986 3.986 0 0 0 .927 1.466l2.254 2.248c-6 0-8-1.14-8-4.57a2.986 2.986 0 0 1 .057-.53z" fill="#ffa8a8"/><path d="m55 49.849a3.992 3.992 0 0 0 -.345-1.625l-2.678-6.024c-.8.754-1.592 1.581-2.327 2.422 1.36 2.298 2.35 4.678 2.35 5.808 0 3.43-2 4.57-8 4.57h5.849a5.151 5.151 0 0 0 5.151-5.151z" fill="#ff9191"/><path d="m57.01 39h-.01v9.3a6.588 6.588 0 0 1 -5.967 6.554 5.14 5.14 0 0 1 -1.184.15h1.231c5.94-.02 8.92-3.44 8.92-6.86v-.144c0-2.62-.05-9-2.99-9z" fill="#ffbaba"/><path d="m9 49.849a3.992 3.992 0 0 1 .345-1.625l2.678-6.024c.8.754 1.592 1.581 2.327 2.422-1.36 2.298-2.35 4.678-2.35 5.808 0 3.43 2 4.57 8 4.57h-5.849a5.151 5.151 0 0 1 -5.151-5.151z" fill="#ff9191"/><path d="m6.99 39h.01v9.3a6.588 6.588 0 0 0 5.967 6.554 5.14 5.14 0 0 0 1.184.15h-1.231c-5.94-.024-8.92-3.444-8.92-6.864v-.14c0-2.62.05-9 2.99-9z" fill="#ffbaba"/><path d="m42 33.757v-20.757h-2v23l-.2.21a25.514 25.514 0 0 1 2.66 3.4 2.782 2.782 0 0 1 1.54-.61v-2l-1.121-1.121a3 3 0 0 1 -.879-2.122z" fill="#ffb844"/><path d="m41 8.817v4.183h2v-4.183a2.824 2.824 0 0 1 -2 0z" fill="#707789"/><ellipse cx="35.684" cy="46.695" fill="#f6fafd" rx="1.642" ry="2.286" transform="matrix(.707 -.707 .707 .707 -22.569 38.929)"/><ellipse cx="48.682" cy="47.708" fill="#f6fafd" rx=".825" ry="1.148" transform="matrix(.707 -.707 .707 .707 -19.476 48.42)"/><ellipse cx="42.682" cy="5.708" fill="#f6fafd" rx=".825" ry="1.148" transform="matrix(.707 -.707 .707 .707 8.474 31.864)"/><ellipse cx="48.427" cy="45.208" fill="#f6fafd" rx=".413" ry=".574" transform="matrix(.707 -.707 .707 .707 -17.782 47.507)"/><rect fill="#29b479" height="2" rx="1" width="18" x="20.102" y="60"/><rect fill="#29b479" height="1.953" rx=".977" width="3" x="40.102" y="60.031"/></g></svg>