<svg xmlns="http://www.w3.org/2000/svg" width="32" height="28" viewBox="0 0 32 28" fill="none" style="max-width:215px;">
  <g>
    <path d="M22.1049 1.15859C22.1049 1.6653 19.596 2.35998 15.5178 2.35998C11.4397 2.35998 8.93066 1.65713 8.93066 1.15859C8.93066 0.660062 11.4397 -0.0427856 15.5137 -0.0427856C19.5878 -0.0427856 22.1009 0.660062 22.1009 1.15859H22.1049Z" fill="#006054"></path>
    <path d="M15.5178 28.0264C19.1546 28.0264 22.1049 27.487 22.1049 26.825C22.1049 26.163 19.1546 25.6236 15.5178 25.6236C11.881 25.6236 8.93066 26.163 8.93066 26.825C8.93066 27.487 11.881 28.0264 15.5178 28.0264Z" fill="#006054"></path>
    <path d="M15.518 6.34009C21.6434 6.34009 26.6083 5.54734 26.6083 4.56662C26.6083 3.5859 21.6434 2.79315 15.518 2.79315C9.39261 2.79315 4.42773 3.5859 4.42773 4.56662C4.42773 5.54734 9.39261 6.34009 15.518 6.34009Z" fill="#006054"></path>
    <path d="M15.518 25.2642C21.6434 25.2642 26.6083 24.4714 26.6083 23.4907C26.6083 22.51 21.6434 21.7172 15.518 21.7172C9.39261 21.7172 4.42773 22.51 4.42773 23.4907C4.42773 24.4714 9.39261 25.2642 15.518 25.2642Z" fill="#006054"></path>
    <path d="M31.0746 14.0266C31.0746 15.2075 25.1535 16.8502 15.518 16.8502C5.88243 16.8502 -0.0427246 15.2075 -0.0427246 14.0266C-0.0427246 12.8456 5.87835 11.2029 15.5139 11.2029C25.1494 11.2029 31.0705 12.8456 31.0705 14.0266H31.0746Z" fill="#006054"></path>
    <path d="M15.5137 21.4839C23.0448 21.4839 29.1498 20.495 29.1498 19.2732C29.1498 18.0514 23.0448 17.0625 15.5137 17.0625C7.98264 17.0625 1.87769 18.0514 1.87769 19.2732C1.87769 20.495 7.98264 21.4839 15.5137 21.4839Z" fill="#006054"></path>
    <path d="M15.5179 10.9865C23.2819 10.9865 29.5748 9.99758 29.5748 8.77577C29.5748 7.55396 23.2819 6.56506 15.5179 6.56506C7.75387 6.56506 1.46094 7.55396 1.46094 8.77577C1.46094 9.99758 7.75387 10.9865 15.5179 10.9865Z" fill="#006054"></path>
  </g>
</svg>
