<svg width="20" height="21" viewBox="0 0 20 21" fill="none" xmlns="http://www.w3.org/2000/svg">
<g clip-path="url(#clip0_223_1402)">
<path d="M7.72645 3.98828C7.41145 3.65328 7.42645 3.12578 7.76145 2.80995L9.74561 0.939948C10.3364 0.347448 11.3281 0.348281 11.9373 0.957448L13.9039 2.80995C14.2389 3.12578 14.2548 3.65328 13.9389 3.98828C13.7748 4.16245 13.5539 4.24995 13.3323 4.24995C13.1273 4.24995 12.9214 4.17495 12.7606 4.02328L11.6656 2.99161V7.16661C11.6656 7.62661 11.2923 7.99995 10.8323 7.99995C10.3723 7.99995 9.99895 7.62661 9.99895 7.16661V2.99078L8.90395 4.02328C8.56978 4.33745 8.04145 4.32411 7.72561 3.98828H7.72645ZM1.40478 5.68995L2.49978 4.65745V7.16661C2.49978 7.62661 2.87311 7.99995 3.33311 7.99995C3.79311 7.99995 4.16645 7.62661 4.16645 7.16661V4.65828L5.26145 5.68995C5.42228 5.84161 5.62728 5.91662 5.83311 5.91662C6.05478 5.91662 6.27561 5.82911 6.43978 5.65495C6.75478 5.31995 6.73978 4.79245 6.40478 4.47661L4.43811 2.62411C3.82811 2.01495 2.83811 2.01411 2.24645 2.60661L0.261446 4.47661C-0.0735537 4.79245 -0.089387 5.31995 0.226446 5.65495C0.54228 5.99078 1.07061 6.00495 1.40478 5.68995ZM19.3631 11.3458L13.6923 17.7108C12.1123 19.4841 9.84395 20.5008 7.47061 20.5008H3.33311C1.49478 20.5008 -0.000220327 19.0058 -0.000220327 17.1674V13.0008C-0.000220327 11.1624 1.49478 9.66745 3.33311 9.66745H10.7148C11.6639 9.66745 12.4964 10.1749 12.9556 10.9333L15.6356 7.98828C16.0873 7.49245 16.7039 7.20161 17.3739 7.17078C18.0473 7.13578 18.6856 7.37078 19.1806 7.82245C20.1923 8.74495 20.2739 10.3249 19.3631 11.3458ZM18.0581 9.05328C17.8923 8.90161 17.6756 8.82495 17.4514 8.83495C17.2264 8.84578 17.0198 8.94245 16.8681 9.10911L13.1798 13.1624C12.8589 14.0541 12.0639 14.7383 11.0839 14.8783L6.78395 15.4924C6.32978 15.5583 5.90645 15.2416 5.84145 14.7849C5.77645 14.3291 6.09311 13.9066 6.54811 13.8416L10.8489 13.2274C11.3156 13.1616 11.6664 12.7566 11.6664 12.2858C11.6664 11.7608 11.2398 11.3333 10.7148 11.3333H3.33311C2.41395 11.3333 1.66645 12.0808 1.66645 12.9999V17.1666C1.66645 18.0858 2.41395 18.8333 3.33311 18.8333H7.47061C9.36978 18.8333 11.1839 18.0191 12.4481 16.6016L18.1189 10.2366C18.4248 9.89328 18.3973 9.36245 18.0581 9.05245V9.05328Z" fill="url(#paint0_linear_223_1402)"/>
</g>
<defs>
<linearGradient id="paint0_linear_223_1402" x1="9.99786" y1="0.498047" x2="9.99786" y2="20.5008" gradientUnits="userSpaceOnUse">
<stop stop-color="white"/>
<stop offset="1" stop-color="white" stop-opacity="0.6"/>
</linearGradient>
<clipPath id="clip0_223_1402">
<rect width="20" height="20" fill="white" transform="translate(0 0.5)"/>
</clipPath>
</defs>
</svg>
