<svg width="20" height="20" viewBox="0 0 20 20" fill="none" xmlns="http://www.w3.org/2000/svg">
<g clip-path="url(#clip0_223_1412)">
<path d="M10 4.16667C10.4608 4.16667 10.8333 4.53917 10.8333 5V9.89667C10.8333 10.1875 10.6825 10.4558 10.4342 10.6083L6.76083 12.855C6.62583 12.9383 6.475 12.9767 6.32667 12.9767C6.04583 12.9767 5.7725 12.835 5.615 12.5775C5.375 12.185 5.49833 11.6725 5.89167 11.4317L9.16667 9.42917V5C9.16667 4.53917 9.53917 4.16667 10 4.16667ZM18.3333 10.8333H15C14.5392 10.8333 14.1667 11.2058 14.1667 11.6667C14.1667 12.1275 14.5392 12.5 15 12.5H17.14L13.5325 16.1067C13.3717 16.2675 13.0875 16.2683 12.925 16.1067L12.005 15.1867C11.2125 14.3925 9.83167 14.3925 9.03667 15.1867L5.65917 18.5783C5.33417 18.905 5.33583 19.4325 5.66167 19.7575C5.82417 19.9192 6.0375 20 6.25 20C6.46417 20 6.67833 19.9175 6.84083 19.755L10.2175 16.3633C10.3783 16.2025 10.6625 16.2017 10.825 16.3633L11.745 17.2833C12.5375 18.0775 13.92 18.0767 14.7117 17.2833L18.3333 13.6625V15.8325C18.3333 16.2933 18.7058 16.6658 19.1667 16.6658C19.6275 16.6658 20 16.2933 20 15.8325V12.4992C20 11.58 19.2525 10.8325 18.3333 10.8325V10.8333ZM1.66667 10C1.66667 5.405 5.405 1.66667 10 1.66667C14.0233 1.66667 17.47 4.53333 18.1958 8.48417C18.28 8.93667 18.7092 9.24167 19.1658 9.15333C19.6183 9.07 19.9175 8.63583 19.835 8.18333C18.9642 3.44167 14.8275 0 10 0C4.48583 0 0 4.48583 0 10C0 12.7633 1.16 15.43 3.18167 17.315C3.34167 17.465 3.54667 17.5392 3.75 17.5392C3.97333 17.5392 4.195 17.4508 4.35917 17.2742C4.67333 16.9383 4.65417 16.4108 4.3175 16.0967C2.63333 14.525 1.66583 12.3033 1.66583 10.0008L1.66667 10Z" fill="url(#paint0_linear_223_1412)"/>
</g>
<defs>
<linearGradient id="paint0_linear_223_1412" x1="10" y1="0" x2="10" y2="20" gradientUnits="userSpaceOnUse">
<stop stop-color="white"/>
<stop offset="1" stop-color="white" stop-opacity="0.6"/>
</linearGradient>
<clipPath id="clip0_223_1412">
<rect width="20" height="20" fill="white"/>
</clipPath>
</defs>
</svg>
