<svg width="20" height="21" viewBox="0 0 20 21" fill="none" xmlns="http://www.w3.org/2000/svg">
<g clip-path="url(#clip0_224_1740)">
<path d="M20 13.8334V18C20 18.6631 19.7366 19.299 19.2678 19.7678C18.7989 20.2366 18.163 20.5 17.5 20.5H13.3333C12.1642 20.4988 11.016 20.1902 10.0039 19.6052C8.99172 19.0201 8.15121 18.1792 7.56667 17.1667C8.19489 17.1622 8.82098 17.0929 9.435 16.96C9.90262 17.5447 10.4958 18.0167 11.1707 18.341C11.8455 18.6653 12.5846 18.8336 13.3333 18.8334H17.5C17.721 18.8334 17.933 18.7456 18.0893 18.5893C18.2455 18.433 18.3333 18.221 18.3333 18V13.8334C18.3331 13.0844 18.1643 12.3451 17.8395 11.6702C17.5146 10.9954 17.042 10.4023 16.4567 9.93503C16.5907 9.32113 16.6611 8.69504 16.6667 8.0667C17.6791 8.65124 18.5201 9.49175 19.1051 10.5039C19.6902 11.5161 19.9988 12.6643 20 13.8334ZM14.9808 8.54253C15.0588 7.4689 14.9047 6.39107 14.529 5.38228C14.1534 4.37349 13.565 3.45738 12.8038 2.69621C12.0426 1.93504 11.1265 1.34664 10.1178 0.970994C9.10896 0.595348 8.03113 0.441258 6.9575 0.519196C5.05493 0.736473 3.29744 1.64184 2.01598 3.06482C0.734522 4.48779 0.0175226 6.33017 0 8.24503L0 12.445C0 14.555 1.25583 15.5 2.5 15.5H7.25C9.16567 15.4835 11.0092 14.767 12.4332 13.4855C13.8571 12.2039 14.7633 10.4459 14.9808 8.54253ZM11.625 3.87586C12.2166 4.46878 12.674 5.18186 12.9661 5.96685C13.2582 6.75184 13.3784 7.59043 13.3183 8.42586C13.1405 9.91226 12.4254 11.2824 11.3078 12.2783C10.1901 13.2742 8.74699 13.8273 7.25 13.8334H2.5C1.72667 13.8334 1.66667 12.7709 1.66667 12.445V8.24503C1.67361 6.74868 2.22721 5.30645 3.22326 4.18976C4.21932 3.07307 5.58916 2.35892 7.075 2.1817C7.21333 2.1717 7.35167 2.1667 7.49 2.1667C8.25772 2.16598 9.01807 2.31656 9.72757 2.60983C10.4371 2.90309 11.0818 3.3333 11.625 3.87586Z" fill="url(#paint0_linear_224_1740)"/>
</g>
<defs>
<linearGradient id="paint0_linear_224_1740" x1="10" y1="0.499512" x2="10" y2="20.5" gradientUnits="userSpaceOnUse">
<stop stop-color="white"/>
<stop offset="1" stop-color="white" stop-opacity="0.6"/>
</linearGradient>
<clipPath id="clip0_224_1740">
<rect width="20" height="20" fill="white" transform="translate(0 0.5)"/>
</clipPath>
</defs>
</svg>
