<svg width="20" height="21" viewBox="0 0 20 21" fill="none" xmlns="http://www.w3.org/2000/svg">
<g clip-path="url(#clip0_224_1749)">
<path d="M18.9133 16.445L18.1017 15.9767C18.24 15.5625 18.3333 15.1275 18.3333 14.6667C18.3333 14.2058 18.2408 13.7708 18.1017 13.3567L18.9133 12.8883C19.3117 12.6583 19.4483 12.1483 19.2183 11.75C18.9883 11.3517 18.4792 11.2142 18.08 11.445L17.2692 11.9133C16.6817 11.2517 15.8992 10.7675 15 10.585V9.6675C15 9.2075 14.6267 8.83417 14.1667 8.83417C13.7067 8.83417 13.3333 9.2075 13.3333 9.6675V10.585C12.4342 10.7683 11.6517 11.2525 11.0642 11.9133L10.2533 11.445C9.85333 11.2142 9.345 11.3525 9.115 11.75C8.885 12.1492 9.02167 12.6583 9.42 12.8883L10.2317 13.3567C10.0933 13.7708 10 14.2058 10 14.6667C10 15.1275 10.0925 15.5625 10.2317 15.9767L9.42 16.445C9.02167 16.675 8.885 17.185 9.115 17.5833C9.34667 17.985 9.86167 18.1158 10.2533 17.8883L11.0642 17.42C11.6517 18.0817 12.4342 18.5658 13.3333 18.7483V19.6658C13.3333 20.1267 13.7067 20.4992 14.1667 20.4992C14.6267 20.4992 15 20.1267 15 19.6658V18.7483C15.8992 18.565 16.6817 18.0808 17.2692 17.42L18.08 17.8883C18.4717 18.1158 18.9867 17.985 19.2183 17.5833C19.4483 17.1842 19.3117 16.675 18.9133 16.445ZM14.1667 17.1667C12.7883 17.1667 11.6667 16.045 11.6667 14.6667C11.6667 13.2883 12.7883 12.1667 14.1667 12.1667C15.545 12.1667 16.6667 13.2883 16.6667 14.6667C16.6667 16.045 15.545 17.1667 14.1667 17.1667ZM8.26167 18.7825C7.88083 18.815 7.48667 18.8333 7.08333 18.8333C3.57833 18.8333 1.66667 17.6142 1.66667 16.9883V15.0483C2.855 15.7867 4.59583 16.2633 6.64083 16.3267H6.66667C7.115 16.3267 7.485 15.97 7.49917 15.5183C7.51333 15.0583 7.15167 14.6742 6.69167 14.66C3.57833 14.565 1.66583 13.3867 1.66583 12.5833V10.8817C2.85417 11.62 4.595 12.0967 6.64 12.16H6.66583C7.11417 12.16 7.48417 11.8033 7.49833 11.3517C7.5125 10.8917 7.15083 10.5075 6.69083 10.4933C3.5775 10.3975 1.665 9.21917 1.665 8.41583V6.715C2.94417 7.51 4.86083 7.99917 7.08167 7.99917C9.3025 7.99917 11.2192 7.50917 12.4983 6.715V6.74917C12.4983 7.20917 12.8717 7.5825 13.3317 7.5825C13.7917 7.5825 14.165 7.20917 14.165 6.74917V4.24917C14.1667 2.1125 11.1217 0.5 7.08333 0.5C3.045 0.5 0 2.1125 0 4.25V16.9883C0 19.2942 3.56333 20.5 7.08333 20.5C7.525 20.5 7.97 20.4817 8.405 20.4433C8.86333 20.4033 9.20333 20 9.16333 19.5417C9.12333 19.0825 8.72167 18.7333 8.26083 18.7833L8.26167 18.7825ZM7.08333 2.16667C10.39 2.16667 12.5 3.4 12.5 4.25C12.5 5.1 10.39 6.33333 7.08333 6.33333C3.77667 6.33333 1.66667 5.1 1.66667 4.25C1.66667 3.4 3.77667 2.16667 7.08333 2.16667Z" fill="url(#paint0_linear_224_1749)"/>
</g>
<defs>
<linearGradient id="paint0_linear_224_1749" x1="9.66501" y1="0.5" x2="9.66501" y2="20.5" gradientUnits="userSpaceOnUse">
<stop stop-color="white"/>
<stop offset="1" stop-color="white" stop-opacity="0.6"/>
</linearGradient>
<clipPath id="clip0_224_1749">
<rect width="20" height="20" fill="white" transform="translate(0 0.5)"/>
</clipPath>
</defs>
</svg>
