<svg width="20" height="20" viewBox="0 0 20 20" fill="none" xmlns="http://www.w3.org/2000/svg">
<g clip-path="url(#clip0_215_750)">
<path d="M1.0325 7.97902L8.15833 12.0182C8.72667 12.3407 9.36333 12.5015 10 12.5015C10.6367 12.5015 11.2742 12.3407 11.8425 12.0182L18.9675 7.97819C19.6142 7.61152 20 6.96569 20 6.24902C20 5.53236 19.6142 4.88652 18.9675 4.51986L11.8425 0.481523C10.7075 -0.16181 9.29417 -0.16181 8.15833 0.481523L1.0325 4.52069C0.385833 4.88736 0 5.53319 0 6.24986C0 6.96652 0.385833 7.61236 1.0325 7.97902ZM11.0208 10.5682C10.4008 10.9199 9.59917 10.9199 8.98 10.5682L6.47083 9.14569L11.0483 6.56652L14.5742 8.55319L11.02 10.5682H11.0208ZM18.3333 6.24986C18.3333 6.31402 18.3092 6.43652 18.145 6.52819L16.2667 7.59319L12.7458 5.60986L15.135 4.26402L18.1458 5.97152C18.3092 6.06402 18.3333 6.18569 18.3333 6.24986ZM8.98 1.93152C9.29 1.75569 9.645 1.66819 10 1.66819C10.355 1.66819 10.7108 1.75569 11.0208 1.93152L13.4425 3.30486L8.815 5.91236L5.37667 3.97486L8.98083 1.93152H8.98ZM1.85417 5.97152L3.68417 4.93402L7.1175 6.86902L4.77917 8.18652L1.855 6.52819C1.69167 6.43569 1.6675 6.31402 1.6675 6.24986C1.6675 6.18569 1.69167 6.06319 1.855 5.97152H1.85417ZM19.8858 10.1349C20.1175 10.5324 19.9842 11.0424 19.5875 11.2749L11.8525 15.8024C11.2783 16.1282 10.6375 16.2907 9.9975 16.2907C9.3575 16.2907 8.725 16.1299 8.15833 15.8082L0.425 11.4599C0.0241667 11.234 -0.118333 10.7265 0.1075 10.3249C0.333333 9.92319 0.84 9.78069 1.2425 10.0074L8.97833 14.3565C9.6 14.709 10.4017 14.709 11.0217 14.3574L18.7475 9.83569C19.1425 9.60236 19.6542 9.73652 19.8875 10.1332L19.8858 10.1349ZM19.8858 13.8465C20.1175 14.244 19.9842 14.754 19.5875 14.9865L11.8525 19.514C11.2783 19.8399 10.6375 20.0024 9.9975 20.0024C9.3575 20.0024 8.725 19.8415 8.15833 19.519L0.425 15.1707C0.0241667 14.9449 -0.118333 14.4374 0.1075 14.0357C0.333333 13.6349 0.84 13.4915 1.2425 13.7182L8.97833 18.0674C9.6 18.4199 10.4017 18.4199 11.0217 18.0682L18.7475 13.5465C19.1425 13.3149 19.6542 13.4465 19.8875 13.8449L19.8858 13.8465Z" fill="url(#paint0_linear_215_750)"/>
</g>
<defs>
<linearGradient id="paint0_linear_215_750" x1="10" y1="-0.000976563" x2="10" y2="20.0024" gradientUnits="userSpaceOnUse">
<stop stop-color="white"/>
<stop offset="1" stop-color="white" stop-opacity="0.6"/>
</linearGradient>
<clipPath id="clip0_215_750">
<rect width="20" height="20" fill="white"/>
</clipPath>
</defs>
</svg>
