<svg width="24" height="24" viewBox="0 0 24 24" fill="none" xmlns="http://www.w3.org/2000/svg">
<g clip-path="url(#clip0_1550_12981)">
<path d="M22.4905 11.926C22.4905 11.0874 22.4224 10.4754 22.2752 9.84082H12.6992V13.6258H18.3201C18.2068 14.5664 17.5948 15.983 16.2349 16.9349L16.2159 17.0616L19.2436 19.4071L19.4534 19.4281C21.3798 17.6489 22.4905 15.0311 22.4905 11.926Z" fill="#4285F4"/>
<path d="M12.6992 21.8983C15.453 21.8983 17.7648 20.9917 19.4534 19.4279L16.2349 16.9347C15.3737 17.5353 14.2177 17.9546 12.6992 17.9546C10.0021 17.9546 7.71297 16.1754 6.89695 13.7163L6.77734 13.7265L3.62906 16.1629L3.58789 16.2774C5.26508 19.6091 8.71016 21.8983 12.6992 21.8983Z" fill="#34A853"/>
<path d="M6.89695 13.7164C6.68164 13.0818 6.55703 12.4018 6.55703 11.6993C6.55703 10.9966 6.68164 10.3167 6.88562 9.68207L6.87992 9.54691L3.69219 7.07129L3.58789 7.1209C2.89664 8.50348 2.5 10.0561 2.5 11.6993C2.5 13.3425 2.89664 14.895 3.58789 16.2775L6.89695 13.7164Z" fill="#FBBC05"/>
<path d="M12.6992 5.44367C14.6144 5.44367 15.9062 6.27094 16.6429 6.96227L19.5213 4.1518C17.7535 2.50859 15.453 1.5 12.6992 1.5C8.71016 1.5 5.26508 3.78914 3.58789 7.12086L6.88562 9.68203C7.71297 7.22289 10.0021 5.44367 12.6992 5.44367Z" fill="#EB4335"/>
</g>
<defs>
<clipPath id="clip0_1550_12981">
<rect width="20" height="20.4688" fill="white" transform="translate(2.5 1.5)"/>
</clipPath>
</defs>
</svg>
