<svg width="15" height="22" viewBox="0 0 15 22" fill="none" xmlns="http://www.w3.org/2000/svg">
<path d="M9.19888 0.25C10.8574 0.250319 11.9764 1.98075 11.3615 3.55566L10.2365 6.43457H12.1302C14.0455 6.43457 15.1919 8.61186 14.176 10.2686L7.69472 20.8389C6.54228 22.7176 3.77718 21.4611 4.26452 19.3477L5.44181 14.2441H2.86773C1.24676 14.2441 0.0921485 12.6367 0.544505 11.043L2.94755 2.5752C3.33796 1.19973 4.56075 0.250155 5.95396 0.25H9.19888ZM5.95396 1.75C5.2144 1.75015 4.55926 2.25465 4.34908 2.99512L1.94509 11.4629C1.76189 12.1083 2.23169 12.7441 2.86773 12.7441H6.3654C6.58837 12.7442 6.79907 12.8486 6.93741 13.0283C7.07581 13.2082 7.12667 13.4438 7.07519 13.667L5.68506 19.6934C5.65073 19.8422 5.6763 19.943 5.71451 20.0137C5.75747 20.093 5.83402 20.1658 5.93496 20.21C6.03609 20.2541 6.13914 20.2602 6.22192 20.2373C6.29499 20.2171 6.38168 20.1674 6.46042 20.0391L12.9417 9.46875C13.3533 8.79735 12.8811 7.93457 12.1302 7.93457H9.15802C8.91574 7.93457 8.68847 7.81075 8.55274 7.60449C8.41702 7.39819 8.39026 7.1354 8.48053 6.9043L10.0065 2.99707C10.2417 2.39498 9.81099 1.75032 9.19888 1.75H5.95396Z" fill="url(#paint0_linear_71_861)"/>
<defs>
<linearGradient id="paint0_linear_71_861" x1="7.5" y1="0.25" x2="7.5" y2="21.7575" gradientUnits="userSpaceOnUse">
<stop stop-color="white"/>
<stop offset="1" stop-color="white" stop-opacity="0.6"/>
</linearGradient>
</defs>
</svg>
