<svg width="106" height="16" viewBox="0 0 106 16" fill="none" xmlns="http://www.w3.org/2000/svg">
<path d="M9.41017 0L0 16H7.29491L16.7051 0H9.41017Z" fill="#7AE2CF"/>
<path d="M16.7051 16H24L19.2949 8H12L16.7051 16Z" fill="#7AE2CF"/>
<path d="M31.5234 0.654297H33.8184L41.0645 12.2754V0.654297H42.9102V15H40.7324L33.3789 3.38867V15H31.5234V0.654297ZM49.4977 4.30664C50.2398 4.30664 50.9592 4.48242 51.6559 4.83398C52.3525 5.17904 52.8831 5.62826 53.2477 6.18164C53.5992 6.70898 53.8336 7.32422 53.9508 8.02734C54.0549 8.50911 54.107 9.27734 54.107 10.332H46.441C46.4736 11.3932 46.7242 12.2461 47.193 12.8906C47.6617 13.5286 48.3876 13.8477 49.3707 13.8477C50.2887 13.8477 51.0211 13.5449 51.568 12.9395C51.8805 12.5879 52.1018 12.181 52.232 11.7188H53.9605C53.915 12.1029 53.762 12.5326 53.5016 13.0078C53.2477 13.4766 52.9612 13.8607 52.6422 14.1602C52.1083 14.681 51.4475 15.0326 50.6598 15.2148C50.2366 15.319 49.7581 15.3711 49.2242 15.3711C47.9221 15.3711 46.8186 14.8991 45.9137 13.9551C45.0087 13.0046 44.5562 11.6764 44.5562 9.9707C44.5562 8.29102 45.012 6.92708 45.9234 5.87891C46.8349 4.83073 48.0263 4.30664 49.4977 4.30664ZM52.3004 8.93555C52.2288 8.17383 52.0628 7.5651 51.8023 7.10938C51.3206 6.26302 50.5165 5.83984 49.3902 5.83984C48.5829 5.83984 47.9059 6.13281 47.359 6.71875C46.8121 7.29818 46.5224 8.03711 46.4898 8.93555H52.3004ZM57.4328 4.54102V11.4844C57.4328 12.0182 57.5174 12.4544 57.6867 12.793C57.9992 13.418 58.5819 13.7305 59.4348 13.7305C60.6587 13.7305 61.4921 13.1836 61.9348 12.0898C62.1757 11.5039 62.2961 10.6999 62.2961 9.67773V4.54102H64.0539V15H62.3937L62.4133 13.457C62.1854 13.8542 61.9022 14.1895 61.5637 14.4629C60.8931 15.0098 60.0793 15.2832 59.1223 15.2832C57.6314 15.2832 56.6158 14.7852 56.0754 13.7891C55.7824 13.2552 55.6359 12.5423 55.6359 11.6504V4.54102H57.4328ZM66.2566 4.54102H67.9266V6.34766C68.0633 5.99609 68.3986 5.56966 68.9324 5.06836C69.4663 4.56055 70.0815 4.30664 70.7781 4.30664C70.8107 4.30664 70.866 4.3099 70.9441 4.31641C71.0223 4.32292 71.1557 4.33594 71.3445 4.35547V6.21094C71.2404 6.19141 71.1427 6.17839 71.0516 6.17188C70.9669 6.16536 70.8725 6.16211 70.7684 6.16211C69.8829 6.16211 69.2026 6.44857 68.7273 7.02148C68.2521 7.58789 68.0145 8.24219 68.0145 8.98438V15H66.2566V4.54102ZM76.4184 13.8672C77.5837 13.8672 78.3812 13.4277 78.8109 12.5488C79.2471 11.6634 79.4652 10.6803 79.4652 9.59961C79.4652 8.62305 79.309 7.82878 78.9965 7.2168C78.5017 6.25326 77.6488 5.77148 76.4379 5.77148C75.3637 5.77148 74.5824 6.18164 74.0941 7.00195C73.6059 7.82227 73.3617 8.81185 73.3617 9.9707C73.3617 11.084 73.6059 12.0117 74.0941 12.7539C74.5824 13.4961 75.3572 13.8672 76.4184 13.8672ZM76.4867 4.23828C77.8344 4.23828 78.9737 4.6875 79.9047 5.58594C80.8357 6.48438 81.3012 7.80599 81.3012 9.55078C81.3012 11.237 80.891 12.6302 80.0707 13.7305C79.2504 14.8307 77.9776 15.3809 76.2523 15.3809C74.8135 15.3809 73.671 14.8958 72.8246 13.9258C71.9783 12.9492 71.5551 11.6406 71.5551 10C71.5551 8.24219 72.001 6.84245 72.893 5.80078C73.7849 4.75911 74.9828 4.23828 76.4867 4.23828ZM83.6602 4.54102L86.4531 13.0566L89.373 4.54102H91.2969L87.3516 15H85.4766L81.6191 4.54102H83.6602ZM92.2008 4.58984H93.9879V15H92.2008V4.58984ZM92.2008 0.654297H93.9879V2.64648H92.2008V0.654297ZM97.4016 12.2168C97.4016 12.7246 97.5871 13.125 97.9582 13.418C98.3293 13.7109 98.7688 13.8574 99.2766 13.8574C99.8951 13.8574 100.494 13.7142 101.073 13.4277C102.05 12.9525 102.538 12.1745 102.538 11.0938V9.67773C102.323 9.81445 102.047 9.92839 101.708 10.0195C101.37 10.1107 101.038 10.1758 100.712 10.2148L99.6477 10.3516C99.0096 10.4362 98.5311 10.5697 98.2121 10.752C97.6717 11.0579 97.4016 11.5462 97.4016 12.2168ZM101.659 8.66211C102.063 8.61003 102.333 8.44076 102.47 8.1543C102.548 7.99805 102.587 7.77344 102.587 7.48047C102.587 6.88151 102.372 6.44857 101.943 6.18164C101.519 5.9082 100.911 5.77148 100.116 5.77148C99.1984 5.77148 98.5474 6.01888 98.1633 6.51367C97.9484 6.78711 97.8085 7.19401 97.7434 7.73438H96.1027C96.1353 6.44531 96.552 5.55013 97.3527 5.04883C98.16 4.54102 99.0943 4.28711 100.155 4.28711C101.386 4.28711 102.385 4.52148 103.154 4.99023C103.915 5.45898 104.296 6.18815 104.296 7.17773V13.2031C104.296 13.3854 104.332 13.5319 104.404 13.6426C104.482 13.7533 104.641 13.8086 104.882 13.8086C104.96 13.8086 105.048 13.8053 105.146 13.7988C105.243 13.7858 105.348 13.7695 105.458 13.75V15.0488C105.185 15.127 104.976 15.1758 104.833 15.1953C104.69 15.2148 104.495 15.2246 104.247 15.2246C103.642 15.2246 103.202 15.0098 102.929 14.5801C102.786 14.3522 102.685 14.0299 102.626 13.6133C102.268 14.082 101.754 14.4889 101.083 14.834C100.413 15.179 99.6737 15.3516 98.8664 15.3516C97.8964 15.3516 97.1021 15.0586 96.4836 14.4727C95.8716 13.8802 95.5656 13.1413 95.5656 12.2559C95.5656 11.2858 95.8684 10.5339 96.4738 10C97.0793 9.46615 97.8736 9.13737 98.8566 9.01367L101.659 8.66211Z" fill="white"/>
</svg>
