<svg width="20" height="21" viewBox="0 0 20 21" fill="none" xmlns="http://www.w3.org/2000/svg">
<g clip-path="url(#clip0_224_1752)">
<path d="M14.1667 8V11.3333C14.1667 11.7942 13.7933 12.1667 13.3333 12.1667C12.8733 12.1667 12.5 11.7942 12.5 11.3333V8.36667L8.08833 12.7575C7.92583 12.9192 7.7125 13 7.5 13C7.28583 13 7.0725 12.9175 6.90917 12.7542C6.58417 12.4275 6.58583 11.9008 6.91167 11.5758L11.3425 7.16667H8.33333C7.87333 7.16667 7.5 6.79417 7.5 6.33333C7.5 5.8725 7.87333 5.5 8.33333 5.5H11.6667C13.045 5.5 14.1667 6.62167 14.1667 8ZM20 3.83333V13.8333C20 15.6717 18.505 17.1667 16.6667 17.1667H14.29L11.0842 19.8167C10.7825 20.085 10.3967 20.2208 10.0075 20.2208C9.61083 20.2208 9.21083 20.08 8.8925 19.7967L5.76917 17.1667H3.33333C1.495 17.1667 0 15.6717 0 13.8333V3.83333C0 1.995 1.495 0.5 3.33333 0.5H16.6667C18.505 0.5 20 1.995 20 3.83333ZM18.3333 3.83333C18.3333 2.91417 17.5858 2.16667 16.6667 2.16667H3.33333C2.41417 2.16667 1.66667 2.91417 1.66667 3.83333V13.8333C1.66667 14.7525 2.41417 15.5 3.33333 15.5H6.07417C6.27083 15.5 6.46083 15.5692 6.61083 15.6958L9.98333 18.5367L13.46 15.6908C13.6092 15.5675 13.7975 15.5 13.9908 15.5H16.6667C17.5858 15.5 18.3333 14.7525 18.3333 13.8333V3.83333Z" fill="url(#paint0_linear_224_1752)"/>
</g>
<defs>
<linearGradient id="paint0_linear_224_1752" x1="10" y1="0.5" x2="10" y2="20.2208" gradientUnits="userSpaceOnUse">
<stop stop-color="white"/>
<stop offset="1" stop-color="white" stop-opacity="0.6"/>
</linearGradient>
<clipPath id="clip0_224_1752">
<rect width="20" height="20" fill="white" transform="translate(0 0.5)"/>
</clipPath>
</defs>
</svg>
