<?xml version="1.0" encoding="utf-8"?>
<!-- Generator: Adobe Illustrator 28.0.0, SVG Export Plug-In . SVG Version: 6.00 Build 0)  -->
<svg version="1.1" id="图层_1" xmlns="http://www.w3.org/2000/svg" xmlns:xlink="http://www.w3.org/1999/xlink" x="0px" y="0px"
	 viewBox="0 0 21.8 20" style="enable-background:new 0 0 21.8 20;" xml:space="preserve">
<style type="text/css">
	.st0{opacity:0.8;enable-background:new    ;}
	.st1{fill:#004EC3;}
	.st2{fill:#5792FF;}
</style>
<path class="st0" d="M2.5,13.6v5.8c0,0.4,0.3,0.5,0.4,0.5c0.1,0,0.4,0.1,0.7-0.1L8,15.6c0.4-0.4,0.7-0.7,1-1.2
	c0.1-0.2,0.2-0.3,0.2-0.3c0.3-0.5,0.3-1.1,0-1.6c-0.4-0.8-1.4-1.6-2.9-2.3l-2.6,1.4C3,12,2.5,12.8,2.5,13.6z"/>
<path d="M0,0.6v6.1c0,0.8,0.5,1.4,1.2,1.7c2.5,0.7,6.8,2.3,7.8,4.5c0.1,0.3,0.2,0.6,0.2,0.9c0.7-1.3,1-2.7,0.9-4.2
	c-0.2-2.1-1.3-4-3-5.2L1,0.1C0.9,0,0.8,0,0.6,0C0.5,0,0.4,0,0.3,0.1C0.1,0.2,0,0.4,0,0.6z"/>
<path class="st0" d="M18.9,13.6v5.8c0,0.4-0.3,0.5-0.4,0.5c-0.1,0-0.4,0.1-0.7-0.1l-4.5-4.3c-0.3-0.3-0.6-0.6-0.8-1
	c-0.2-0.3-0.3-0.4-0.3-0.4c-0.3-0.5-0.3-1.1,0-1.6c0.4-0.8,1.4-1.6,2.9-2.3l2.6,1.4C18.4,12,18.9,12.8,18.9,13.6z"/>
<path d="M21.4,0.6v6.1c0,0.8-0.5,1.4-1.2,1.7c-2.5,0.7-6.8,2.3-7.8,4.5c-0.1,0.3-0.2,0.6-0.2,0.9c-0.7-1.3-1-2.7-0.9-4.2
	c0.2-2.1,1.3-4,3-5.2l6.2-4.3C20.6,0,20.7,0,20.8,0c0.1,0,0.2,0,0.3,0.1C21.3,0.2,21.4,0.4,21.4,0.6z"/>
<path class="st1" d="M2.5,13.6v5.8c0,0.4,0.3,0.5,0.4,0.5c0.1,0,0.4,0.1,0.7-0.1L8,15.6c0.4-0.4,0.7-0.7,1-1.2
	c0.1-0.2,0.2-0.3,0.2-0.3c0.3-0.5,0.3-1.1,0-1.6c-0.4-0.8-1.4-1.6-2.9-2.3l-2.6,1.4C3,12,2.5,12.8,2.5,13.6z"/>
<path class="st2" d="M0,0.6v6.1c0,0.8,0.5,1.4,1.2,1.7c2.5,0.7,6.8,2.3,7.8,4.5c0.1,0.3,0.2,0.6,0.2,0.9c0.7-1.3,1-2.7,0.9-4.2
	c-0.2-2.1-1.3-4-3-5.2L1,0.1C0.9,0,0.8,0,0.6,0C0.5,0,0.4,0,0.3,0.1C0.1,0.2,0,0.4,0,0.6z"/>
<path class="st1" d="M18.9,13.6v5.8c0,0.4-0.3,0.5-0.4,0.5c-0.1,0-0.4,0.1-0.7-0.1l-4.5-4.3c-0.3-0.3-0.6-0.6-0.8-1
	c-0.2-0.3-0.3-0.4-0.3-0.4c-0.3-0.5-0.3-1.1,0-1.6c0.4-0.8,1.4-1.6,2.9-2.3l2.6,1.4C18.4,12,18.9,12.8,18.9,13.6z"/>
<path class="st2" d="M21.4,0.6v6.1c0,0.8-0.5,1.4-1.2,1.7c-2.5,0.7-6.8,2.3-7.8,4.5c-0.1,0.3-0.2,0.6-0.2,0.9
	c-0.7-1.3-1-2.7-0.9-4.2c0.2-2.1,1.3-4,3-5.2l6.2-4.3C20.6,0,20.7,0,20.8,0c0.1,0,0.2,0,0.3,0.1C21.3,0.2,21.4,0.4,21.4,0.6z"/>
</svg>
