<svg width="20" height="20" viewBox="0 0 20 20" fill="none" xmlns="http://www.w3.org/2000/svg">
<g clip-path="url(#clip0_223_1407)">
<path d="M6.66667 10C9.42417 10 11.6667 7.7575 11.6667 5C11.6667 2.2425 9.42417 0 6.66667 0C3.90917 0 1.66667 2.2425 1.66667 5C1.66667 7.7575 3.90917 10 6.66667 10ZM6.66667 1.66667C8.505 1.66667 10 3.16167 10 5C10 6.83833 8.505 8.33333 6.66667 8.33333C4.82833 8.33333 3.33333 6.83833 3.33333 5C3.33333 3.16167 4.82833 1.66667 6.66667 1.66667ZM8.33333 12.5C8.33333 12.96 7.96 13.3333 7.5 13.3333C4.28333 13.3333 1.66667 15.95 1.66667 19.1667C1.66667 19.6267 1.29333 20 0.833333 20C0.373333 20 0 19.6267 0 19.1667C0 15.0317 3.365 11.6667 7.5 11.6667C7.96 11.6667 8.33333 12.04 8.33333 12.5ZM19.7033 14.7933L17.7317 16.3992L18.5475 18.8825C18.6592 19.2183 18.5458 19.5883 18.265 19.8042C17.9842 20.02 17.5975 20.035 17.3017 19.8425L15.0067 18.3483L12.75 19.8583C12.61 19.9525 12.4483 19.9992 12.2867 19.9992C12.1108 19.9992 11.935 19.9433 11.7867 19.8325C11.5033 19.6208 11.3858 19.2525 11.4917 18.915L12.2758 16.4017L10.295 14.79C10.0283 14.5642 9.93083 14.1958 10.0517 13.8675C10.1725 13.5392 10.4842 13.3217 10.8333 13.3217H13.3342L14.2192 10.8383C14.3408 10.5125 14.6525 10.2958 15 10.2958C15.3475 10.2958 15.66 10.5125 15.7808 10.8383L16.6658 13.3217H19.1667C19.5167 13.3217 19.8292 13.5408 19.9492 13.8692C20.0692 14.1975 19.9708 14.5667 19.7033 14.7925V14.7933Z" fill="url(#paint0_linear_223_1407)"/>
</g>
<defs>
<linearGradient id="paint0_linear_223_1407" x1="9.99985" y1="0" x2="9.99985" y2="20" gradientUnits="userSpaceOnUse">
<stop stop-color="white"/>
<stop offset="1" stop-color="white" stop-opacity="0.6"/>
</linearGradient>
<clipPath id="clip0_223_1407">
<rect width="20" height="20" fill="white"/>
</clipPath>
</defs>
</svg>
