<svg width="20" height="20" viewBox="0 0 20 20" fill="none" xmlns="http://www.w3.org/2000/svg">
<path d="M17.1818 9.63992C15.9342 7.47075 14.1867 5.98992 12.2092 5.35409C12.7834 4.80075 13.4234 4.02159 14.0567 2.91325C14.2742 2.53325 14.1601 2.04992 13.7959 1.80659C13.7367 1.76659 12.3092 0.833252 10.0001 0.833252C7.69092 0.833252 6.26425 1.76659 6.20425 1.80659C5.83925 2.04992 5.72592 2.53325 5.94342 2.91325C6.57675 4.02159 7.21758 4.80159 7.79092 5.35409C5.81342 5.98992 4.06508 7.47075 2.81842 9.63992C1.79092 11.4283 1.47425 13.4024 1.92675 15.1966C2.63842 18.0166 4.97675 19.1666 10.0001 19.1666C15.0234 19.1666 17.3626 18.0166 18.0734 15.1974C18.5259 13.4024 18.2092 11.4291 17.1818 9.63992ZM10.0001 2.49992C10.9067 2.49992 11.6342 2.67992 12.1301 2.85659C11.2142 4.19992 10.3817 4.74075 10.0001 4.93409C9.61842 4.74075 8.78592 4.19992 7.87008 2.85659C8.36675 2.67992 9.09342 2.49992 10.0001 2.49992ZM16.4576 14.7899C16.1276 16.1008 15.3284 17.4999 10.0001 17.4999C4.67175 17.4999 3.87258 16.1008 3.54258 14.7891C3.19592 13.4166 3.45258 11.8824 4.26342 10.4699C5.08008 9.04992 6.91175 6.66659 10.0001 6.66659C13.0884 6.66659 14.9193 9.04992 15.7368 10.4699C16.5484 11.8816 16.8043 13.4158 16.4576 14.7899ZM12.2992 13.4358C12.2992 14.4274 11.6942 15.2808 10.8334 15.6449V15.8333C10.8334 16.2941 10.4609 16.6666 10.0001 16.6666C9.53925 16.6666 9.16675 16.2941 9.16675 15.8333V15.7174C8.46842 15.4916 7.89508 14.9516 7.64175 14.2358C7.48758 13.8016 7.71508 13.3249 8.14842 13.1724C8.58425 13.0191 9.06008 13.2458 9.21175 13.6791C9.31508 13.9708 9.59258 14.1666 9.90175 14.1666C10.3042 14.1666 10.6318 13.8383 10.6318 13.4358C10.6318 13.0799 10.3534 12.7324 9.99592 12.7241C8.78508 12.7241 7.80008 11.7391 7.80008 10.5283C7.80008 9.61159 8.36592 8.82575 9.16592 8.49825V8.33325C9.16592 7.87242 9.53842 7.49992 9.99925 7.49992C10.4601 7.49992 10.8326 7.87242 10.8326 8.33325V8.50492C11.1351 8.62992 11.4109 8.81659 11.6326 9.06575C11.9392 9.40909 11.9092 9.93659 11.5659 10.2424C11.2226 10.5474 10.6951 10.5191 10.3892 10.1758C10.2884 10.0624 10.1484 9.99992 9.99592 9.99992C9.70425 9.99992 9.46675 10.2374 9.46675 10.5291C9.46592 10.8424 9.74092 11.0899 10.0451 11.0433C11.3084 11.1183 12.2976 12.1699 12.2976 13.4358H12.2992Z" fill="url(#paint0_linear_223_1422)"/>
<defs>
<linearGradient id="paint0_linear_223_1422" x1="10.0001" y1="0.833252" x2="10.0001" y2="19.1666" gradientUnits="userSpaceOnUse">
<stop stop-color="white"/>
<stop offset="1" stop-color="white" stop-opacity="0.6"/>
</linearGradient>
</defs>
</svg>
