<svg width="14" height="14" viewBox="0 0 14 14" fill="none" xmlns="http://www.w3.org/2000/svg">
<g clip-path="url(#clip0_227_2267)">
<path d="M13.8292 13.0042L10.3473 9.52233C11.2961 8.36184 11.7627 6.88105 11.6504 5.38624C11.538 3.89143 10.8555 2.49697 9.74387 1.4913C8.63226 0.485626 7.17663 -0.054318 5.67807 -0.0168494C4.17952 0.0206191 2.75269 0.632633 1.69272 1.6926C0.632756 2.75257 0.0207412 4.1794 -0.0167273 5.67795C-0.0541959 7.17651 0.485748 8.63214 1.49142 9.74375C2.49709 10.8554 3.89155 11.5379 5.38636 11.6502C6.88117 11.7625 8.36196 11.296 9.52245 10.3472L13.0044 13.8291C13.1144 13.9353 13.2617 13.9941 13.4147 13.9928C13.5676 13.9915 13.7139 13.9301 13.8221 13.822C13.9302 13.7138 13.9916 13.5675 13.9929 13.4146C13.9943 13.2616 13.9355 13.1143 13.8292 13.0042ZM5.83345 10.5C4.91047 10.5 4.00822 10.2263 3.24079 9.71352C2.47336 9.20074 1.87522 8.47191 1.52201 7.61918C1.1688 6.76646 1.07639 5.82815 1.25645 4.92291C1.43652 4.01766 1.88097 3.18614 2.53362 2.5335C3.18626 1.88085 4.01778 1.43639 4.92303 1.25633C5.82827 1.07627 6.76658 1.16868 7.61931 1.52189C8.47203 1.8751 9.20086 2.47324 9.71364 3.24067C10.2264 4.0081 10.5001 4.91035 10.5001 5.83333C10.4987 7.07058 10.0066 8.25676 9.13175 9.13163C8.25688 10.0065 7.0707 10.4986 5.83345 10.5Z" fill="url(#paint0_linear_227_2267)"/>
</g>
<defs>
<linearGradient id="paint0_linear_227_2267" x1="6.9872" y1="-0.0186768" x2="6.9872" y2="13.9928" gradientUnits="userSpaceOnUse">
<stop stop-color="white"/>
<stop offset="1" stop-color="white" stop-opacity="0.6"/>
</linearGradient>
<clipPath id="clip0_227_2267">
<rect width="14" height="14" fill="white"/>
</clipPath>
</defs>
</svg>
