<svg width="20" height="20" viewBox="0 0 20 20" fill="none" xmlns="http://www.w3.org/2000/svg">
<g clip-path="url(#clip0_223_1417)">
<path d="M12.1669 17.75C11.9169 17.9383 11.6511 18.1366 11.4252 18.3333H13.3336C13.5546 18.3333 13.7666 18.4211 13.9228 18.5774C14.0791 18.7337 14.1669 18.9456 14.1669 19.1666C14.1669 19.3876 14.0791 19.5996 13.9228 19.7559C13.7666 19.9122 13.5546 20 13.3336 20H10.0002C9.77923 20 9.56727 19.9122 9.41099 19.7559C9.25471 19.5996 9.16691 19.3876 9.16691 19.1666C9.16691 17.9166 10.2294 17.12 11.1669 16.4166C11.7919 15.9483 12.5002 15.4166 12.5002 15C12.5002 14.7789 12.4124 14.567 12.2562 14.4107C12.0999 14.2544 11.8879 14.1666 11.6669 14.1666C11.4459 14.1666 11.2339 14.2544 11.0777 14.4107C10.9214 14.567 10.8336 14.7789 10.8336 15C10.8336 15.221 10.7458 15.4329 10.5895 15.5892C10.4332 15.7455 10.2213 15.8333 10.0002 15.8333C9.77923 15.8333 9.56727 15.7455 9.41099 15.5892C9.25471 15.4329 9.16691 15.221 9.16691 15C9.16691 14.3369 9.4303 13.701 9.89914 13.2322C10.368 12.7634 11.0039 12.5 11.6669 12.5C12.33 12.5 12.9658 12.7634 13.4347 13.2322C13.9035 13.701 14.1669 14.3369 14.1669 15C14.1669 16.25 13.1044 17.0466 12.1669 17.75ZM19.1669 12.5C18.9459 12.5 18.7339 12.5878 18.5777 12.744C18.4214 12.9003 18.3336 13.1123 18.3336 13.3333V15.8333H17.5002C17.2792 15.8333 17.0673 15.7455 16.911 15.5892C16.7547 15.4329 16.6669 15.221 16.6669 15V13.3333C16.6669 13.1123 16.5791 12.9003 16.4228 12.744C16.2666 12.5878 16.0546 12.5 15.8336 12.5C15.6126 12.5 15.4006 12.5878 15.2443 12.744C15.088 12.9003 15.0002 13.1123 15.0002 13.3333V15C15.0002 15.663 15.2636 16.2989 15.7325 16.7677C16.2013 17.2366 16.8372 17.5 17.5002 17.5H18.3336V19.1666C18.3336 19.3876 18.4214 19.5996 18.5777 19.7559C18.7339 19.9122 18.9459 20 19.1669 20C19.3879 20 19.5999 19.9122 19.7562 19.7559C19.9124 19.5996 20.0002 19.3876 20.0002 19.1666V13.3333C20.0002 13.1123 19.9124 12.9003 19.7562 12.744C19.5999 12.5878 19.3879 12.5 19.1669 12.5ZM10.8336 9.99996V5.83329C10.8336 5.61228 10.7458 5.40032 10.5895 5.24404C10.4332 5.08776 10.2213 4.99996 10.0002 4.99996C9.77923 4.99996 9.56727 5.08776 9.41099 5.24404C9.25471 5.40032 9.16691 5.61228 9.16691 5.83329V9.16663H6.66691C6.4459 9.16663 6.23393 9.25442 6.07765 9.4107C5.92137 9.56698 5.83358 9.77894 5.83358 9.99996C5.83358 10.221 5.92137 10.4329 6.07765 10.5892C6.23393 10.7455 6.4459 10.8333 6.66691 10.8333H10.0002C10.2213 10.8333 10.4332 10.7455 10.5895 10.5892C10.7458 10.4329 10.8336 10.221 10.8336 9.99996ZM19.1669 1.66663C18.9459 1.66663 18.7339 1.75442 18.5777 1.9107C18.4214 2.06698 18.3336 2.27895 18.3336 2.49996V4.47829C17.4653 3.16794 16.3003 2.08073 14.9332 1.30488C13.5661 0.52903 12.0354 0.0863962 10.4652 0.0128928C8.89496 -0.0606106 7.32955 0.237086 5.89593 0.881829C4.46232 1.52657 3.2009 2.5002 2.21401 3.72371C1.22712 4.94722 0.542562 6.38616 0.215887 7.92376C-0.110789 9.46136 -0.0703837 11.0543 0.333824 12.5734C0.738032 14.0924 1.49466 15.4948 2.54231 16.6667C3.58996 17.8386 4.89912 18.7471 6.36358 19.3183C6.46036 19.3556 6.56318 19.3748 6.66691 19.375C6.86138 19.3753 7.04982 19.3075 7.19962 19.1835C7.34941 19.0595 7.45112 18.887 7.48712 18.6959C7.52313 18.5048 7.49116 18.3071 7.39677 18.1371C7.30237 17.9671 7.15149 17.8354 6.97024 17.765C5.72693 17.2842 4.61709 16.5122 3.7339 15.5137C2.8507 14.5153 2.21992 13.3195 1.8945 12.0268C1.56908 10.7341 1.55853 9.38219 1.86372 8.08457C2.16891 6.78695 2.78095 5.58148 3.64845 4.56935C4.51595 3.55722 5.6136 2.76797 6.84925 2.26785C8.0849 1.76774 9.42251 1.57134 10.7498 1.69516C12.077 1.81898 13.3552 2.2594 14.4771 2.97945C15.5989 3.6995 16.5316 4.67817 17.1969 5.83329H15.0002C14.7792 5.83329 14.5673 5.92109 14.411 6.07737C14.2547 6.23365 14.1669 6.44561 14.1669 6.66663C14.1669 6.88764 14.2547 7.0996 14.411 7.25588C14.5673 7.41216 14.7792 7.49996 15.0002 7.49996H17.5002C18.1633 7.49996 18.7992 7.23657 19.268 6.76773C19.7369 6.29889 20.0002 5.663 20.0002 4.99996V2.49996C20.0002 2.27895 19.9124 2.06698 19.7562 1.9107C19.5999 1.75442 19.3879 1.66663 19.1669 1.66663Z" fill="url(#paint0_linear_223_1417)"/>
</g>
<defs>
<linearGradient id="paint0_linear_223_1417" x1="9.9989" y1="0.00195312" x2="9.9989" y2="20" gradientUnits="userSpaceOnUse">
<stop stop-color="white"/>
<stop offset="1" stop-color="white" stop-opacity="0.6"/>
</linearGradient>
<clipPath id="clip0_223_1417">
<rect width="20" height="20" fill="white"/>
</clipPath>
</defs>
</svg>
