<svg width="20" height="20" viewBox="0 0 20 20" fill="none" xmlns="http://www.w3.org/2000/svg">
<g clip-path="url(#clip0_224_1427)">
<path d="M17.0833 12.6008V7.30331C17.41 7.18498 17.7183 7.00248 17.98 6.74081L19.2833 5.43748C20.2375 4.48331 20.2375 2.93164 19.2833 1.97831L17.98 0.674976C17.025 -0.280024 15.4733 -0.278358 14.5208 0.674976L13.2175 1.97831C12.96 2.23581 12.775 2.54248 12.655 2.87498H7.38667C6.99 1.23081 5.51583 0.000809077 3.75083 0.000809077C1.6825 -2.42554e-05 0 1.68248 0 3.74998C0 5.37748 1.04833 6.75164 2.5 7.26998V13.3333H2.33417C1.0475 13.3333 0 14.38 0 15.6666V17.6666C0 18.9533 1.0475 20 2.33417 20H4.33333C5.62 20 6.66667 18.9533 6.66667 17.6666V15.6666C6.66667 14.38 5.62 13.3333 4.33333 13.3333H4.16667V7.45748C5.7725 7.27664 7.07667 6.09498 7.4125 4.53998H12.6542C12.7742 4.87248 12.9592 5.17914 13.2167 5.43664L14.52 6.73998C14.7817 7.00164 15.0892 7.18414 15.4158 7.30247V12.6C13.7492 12.9808 12.4992 14.4683 12.4992 16.2491C12.4992 18.3166 14.1817 19.9991 16.2492 19.9991C18.3167 19.9991 19.9992 18.3166 19.9992 16.2491C19.9992 14.4683 18.7492 12.9808 17.0825 12.6L17.0833 12.6008ZM5 15.6666V17.6666C5 18.0341 4.70167 18.3333 4.33333 18.3333H2.33417C1.96667 18.3333 1.66667 18.035 1.66667 17.6666V15.6666C1.66667 15.2991 1.96583 15 2.33417 15H4.33333C4.70083 15 5 15.2983 5 15.6666ZM3.75 5.83331C2.60083 5.83331 1.66667 4.89831 1.66667 3.74998C1.66667 2.60164 2.60083 1.66664 3.75 1.66664C4.89917 1.66664 5.83333 2.60164 5.83333 3.74998C5.83333 4.89831 4.89917 5.83331 3.75 5.83331ZM14.395 4.25831C14.2475 4.11081 14.1675 3.91498 14.1675 3.70664C14.1675 3.49831 14.2483 3.30248 14.395 3.15498L15.6983 1.85164C15.8458 1.70414 16.0417 1.62331 16.25 1.62331C16.4583 1.62331 16.6533 1.70414 16.8008 1.85164L18.1042 3.15498C18.2517 3.30248 18.3325 3.49831 18.3325 3.70664C18.3325 3.91498 18.2508 4.11081 18.1042 4.25831L16.8008 5.56164C16.5058 5.85664 15.9917 5.85581 15.6983 5.56164L14.395 4.25831ZM16.25 18.3333C15.1008 18.3333 14.1667 17.3991 14.1667 16.25C14.1667 15.1008 15.1008 14.1666 16.25 14.1666C17.3992 14.1666 18.3333 15.1008 18.3333 16.25C18.3333 17.3991 17.3992 18.3333 16.25 18.3333Z" fill="black"/>
<path d="M17.0833 12.6008V7.30331C17.41 7.18498 17.7183 7.00248 17.98 6.74081L19.2833 5.43748C20.2375 4.48331 20.2375 2.93164 19.2833 1.97831L17.98 0.674976C17.025 -0.280024 15.4733 -0.278358 14.5208 0.674976L13.2175 1.97831C12.96 2.23581 12.775 2.54248 12.655 2.87498H7.38667C6.99 1.23081 5.51583 0.000809077 3.75083 0.000809077C1.6825 -2.42554e-05 0 1.68248 0 3.74998C0 5.37748 1.04833 6.75164 2.5 7.26998V13.3333H2.33417C1.0475 13.3333 0 14.38 0 15.6666V17.6666C0 18.9533 1.0475 20 2.33417 20H4.33333C5.62 20 6.66667 18.9533 6.66667 17.6666V15.6666C6.66667 14.38 5.62 13.3333 4.33333 13.3333H4.16667V7.45748C5.7725 7.27664 7.07667 6.09498 7.4125 4.53998H12.6542C12.7742 4.87248 12.9592 5.17914 13.2167 5.43664L14.52 6.73998C14.7817 7.00164 15.0892 7.18414 15.4158 7.30247V12.6C13.7492 12.9808 12.4992 14.4683 12.4992 16.2491C12.4992 18.3166 14.1817 19.9991 16.2492 19.9991C18.3167 19.9991 19.9992 18.3166 19.9992 16.2491C19.9992 14.4683 18.7492 12.9808 17.0825 12.6L17.0833 12.6008ZM5 15.6666V17.6666C5 18.0341 4.70167 18.3333 4.33333 18.3333H2.33417C1.96667 18.3333 1.66667 18.035 1.66667 17.6666V15.6666C1.66667 15.2991 1.96583 15 2.33417 15H4.33333C4.70083 15 5 15.2983 5 15.6666ZM3.75 5.83331C2.60083 5.83331 1.66667 4.89831 1.66667 3.74998C1.66667 2.60164 2.60083 1.66664 3.75 1.66664C4.89917 1.66664 5.83333 2.60164 5.83333 3.74998C5.83333 4.89831 4.89917 5.83331 3.75 5.83331ZM14.395 4.25831C14.2475 4.11081 14.1675 3.91498 14.1675 3.70664C14.1675 3.49831 14.2483 3.30248 14.395 3.15498L15.6983 1.85164C15.8458 1.70414 16.0417 1.62331 16.25 1.62331C16.4583 1.62331 16.6533 1.70414 16.8008 1.85164L18.1042 3.15498C18.2517 3.30248 18.3325 3.49831 18.3325 3.70664C18.3325 3.91498 18.2508 4.11081 18.1042 4.25831L16.8008 5.56164C16.5058 5.85664 15.9917 5.85581 15.6983 5.56164L14.395 4.25831ZM16.25 18.3333C15.1008 18.3333 14.1667 17.3991 14.1667 16.25C14.1667 15.1008 15.1008 14.1666 16.25 14.1666C17.3992 14.1666 18.3333 15.1008 18.3333 16.25C18.3333 17.3991 17.3992 18.3333 16.25 18.3333Z" fill="url(#paint0_linear_224_1427)"/>
</g>
<defs>
<linearGradient id="paint0_linear_224_1427" x1="9.99958" y1="-0.0406494" x2="9.99958" y2="20" gradientUnits="userSpaceOnUse">
<stop stop-color="white"/>
<stop offset="1" stop-color="white" stop-opacity="0.6"/>
</linearGradient>
<clipPath id="clip0_224_1427">
<rect width="20" height="20" fill="white"/>
</clipPath>
</defs>
</svg>
