<svg width="20" height="21" viewBox="0 0 20 21" fill="none" xmlns="http://www.w3.org/2000/svg">
<g clip-path="url(#clip0_224_1746)">
<path d="M2.5 14.6667C2.96083 14.6667 3.33333 14.2942 3.33333 13.8334C3.33333 13.3725 3.70667 13 4.16667 13H9.16667V13.8334C9.16667 14.2942 9.53917 14.6667 10 14.6667C10.4608 14.6667 10.8333 14.2942 10.8333 13.8334V13H15.8333C16.2933 13 16.6667 13.3734 16.6667 13.8334C16.6667 14.2934 17.0392 14.6667 17.5 14.6667C17.9608 14.6667 18.3333 14.2942 18.3333 13.8334C18.3333 12.455 17.2117 11.3334 15.8333 11.3334H10.8333V10.4159C11.7333 10.2325 12.5292 9.75754 13.1167 9.09504L13.9133 9.55504C14.0442 9.63088 14.1875 9.66671 14.3292 9.66671C14.6175 9.66671 14.8975 9.51754 15.0517 9.25004C15.2817 8.85088 15.145 8.34171 14.7467 8.11171L13.9525 7.65338C14.0917 7.23838 14.1667 6.79504 14.1667 6.33421C14.1667 5.87338 14.0908 5.42921 13.9525 5.01504L14.7467 4.55671C15.1458 4.32671 15.2825 3.81671 15.0517 3.41838C14.8208 3.01921 14.31 2.88254 13.9133 3.11338L13.1167 3.57338C12.5283 2.91088 11.7333 2.43588 10.8333 2.25254V1.33504C10.8333 0.875042 10.4608 0.501709 10 0.501709C9.53917 0.501709 9.16667 0.875042 9.16667 1.33504V2.25254C8.26667 2.43588 7.47083 2.91088 6.88333 3.57338L6.08667 3.11338C5.6875 2.88254 5.17833 3.01921 4.94833 3.41838C4.71833 3.81754 4.855 4.32671 5.25333 4.55671L6.0475 5.01504C5.90833 5.43004 5.83333 5.87338 5.83333 6.33421C5.83333 6.79504 5.90917 7.23921 6.0475 7.65338L5.25333 8.11171C4.85417 8.34171 4.7175 8.85171 4.94833 9.25004C5.10333 9.51754 5.3825 9.66671 5.67083 9.66671C5.8125 9.66671 5.95583 9.63088 6.08667 9.55504L6.88333 9.09504C7.47167 9.75754 8.26667 10.2325 9.16667 10.4159V11.3334H4.16667C2.78833 11.3334 1.66667 12.455 1.66667 13.8334C1.66667 14.2942 2.03917 14.6667 2.5 14.6667ZM7.5 6.33338C7.5 4.95504 8.62167 3.83338 10 3.83338C11.3783 3.83338 12.5 4.95504 12.5 6.33338C12.5 7.71171 11.3783 8.83338 10 8.83338C8.62167 8.83338 7.5 7.71171 7.5 6.33338ZM10.8333 15.5H9.16667C8.2475 15.5 7.5 16.2475 7.5 17.1667V18.8334C7.5 19.7525 8.2475 20.5 9.16667 20.5H10.8333C11.7525 20.5 12.5 19.7525 12.5 18.8334V17.1667C12.5 16.2475 11.7525 15.5 10.8333 15.5ZM10.8333 18.8334H9.16667V17.1667H10.8333V18.8334ZM18.3333 15.5H16.6667C15.7475 15.5 15 16.2475 15 17.1667V18.8334C15 19.7525 15.7475 20.5 16.6667 20.5H18.3333C19.2525 20.5 20 19.7525 20 18.8334V17.1667C20 16.2475 19.2525 15.5 18.3333 15.5ZM18.3333 18.8334H16.6667V17.1667H18.3333V18.8334ZM3.33333 15.5H1.66667C0.7475 15.5 0 16.2475 0 17.1667V18.8334C0 19.7525 0.7475 20.5 1.66667 20.5H3.33333C4.2525 20.5 5 19.7525 5 18.8334V17.1667C5 16.2475 4.2525 15.5 3.33333 15.5ZM3.33333 18.8334H1.66667V17.1667H3.33333V18.8334Z" fill="url(#paint0_linear_224_1746)"/>
</g>
<defs>
<linearGradient id="paint0_linear_224_1746" x1="10" y1="0.501709" x2="10" y2="20.5" gradientUnits="userSpaceOnUse">
<stop stop-color="white"/>
<stop offset="1" stop-color="white" stop-opacity="0.6"/>
</linearGradient>
<clipPath id="clip0_224_1746">
<rect width="20" height="20" fill="white" transform="translate(0 0.5)"/>
</clipPath>
</defs>
</svg>
